<svg xmlns="http://www.w3.org/2000/svg" xmlns:xlink="http://www.w3.org/1999/xlink" viewBox="0 0 254.795 206.516">
  <defs>
    <style>
      .cls-1 {
        opacity: 0.1;
      }

      .cls-1, .cls-2 {
        fill: url(#linear-gradient);
      }

      .cls-2 {
        opacity: 0.2;
      }

      .cls-3 {
        fill: #b8b7b7;
      }

      .cls-4 {
        fill: #0c77f2;
      }
    </style>
    <linearGradient id="linear-gradient" y1="0.5" x2="1" y2="0.5" gradientUnits="objectBoundingBox">
      <stop offset="0" stop-color="#231f20" stop-opacity="0"/>
      <stop offset="1" stop-color="#231f20" stop-opacity="0.4"/>
    </linearGradient>
  </defs>
  <g id="Group_304" data-name="Group 304" transform="translate(11.395 -221.984)">
    <g id="Asset_3" data-name="Asset 3" transform="translate(-11.395 221.984)">
      <g id="Layer_1" data-name="Layer 1">
        <path id="Path_144" data-name="Path 144" class="cls-1" d="M191.356,0,50.139,66.471,0,128.854l168.632-17.265"/>
        <path id="Path_145" data-name="Path 145" class="cls-2" d="M191.237,129.309.395,208,34.447,97.916l134.185,15.152-3.274-59.96L213.97,17.29l6.255,59.475Z" transform="translate(0 -1.479)"/>
      </g>
    </g>
    <g id="Group_1" data-name="Group 1" transform="translate(116.302 221.984)">
      <path id="Path_141" data-name="Path 141" class="cls-3" d="M126.826,53.418,90.695,17.26V19.6a11.768,11.768,0,0,1-.155,1.647l-.064.446c-.091.582-.191,1.165-.328,1.738v.109c-.136.573-.291,1.1-.455,1.62l-.146.428c-.218.628-.428,1.174-.646,1.674l-.046.1c-.227.519-.491,1.028-.755,1.538l-.218.4c-.346.61-.655,1.11-.964,1.565s-.682.91-1.119,1.492l-.3.364c-.473.555-.91,1-1.283,1.4L72.079,46.239l3.239,3.248a22.155,22.155,0,0,1,0,31.354L56.011,100.077c-.373.382-.737.773-1.083,1.183l-.118.155-.155.227c-.264.337-.482.619-.682.91l-.118.182-.218.346c-.164.264-.337.519-.482.792-.045.082-.091.173-.136.264l-.218.446c-.109.218-.227.437-.328.664a2.345,2.345,0,0,0-.118.309l-.191.491c-.082.2-.164.409-.237.619s-.073.246-.109.373l-.155.528c-.055.182-.109.364-.155.546s-.055.273-.082.419l-.1.528a3.95,3.95,0,0,1-.1.537,2.326,2.326,0,0,0,0,.437l-.055.546v2.511l.045.537v.446a3.061,3.061,0,0,0,.091.528l.091.519a1.847,1.847,0,0,0,.082.437c.036.146.082.328.136.491l.146.537a1.427,1.427,0,0,0,.118.428c.046.136.118.337.182.5l.2.519c.046.136.1.273.155.409s.155.318.227.482l.246.51c.064.136.127.273.2.4s.173.3.273.446l.382.473c.082.137.155.264.246.4s.209.291.318.437l.337.455c.091.127.191.264.291.382l1.483,1.483a16.487,16.487,0,0,0,23.393,0l47.013-46.913a16.651,16.651,0,0,0,0-23.575Z" transform="translate(-4.618 -1.531)"/>
      <path id="Path_142" data-name="Path 142" class="cls-4" d="M59.6,82.514l-3.239-3.248a22.192,22.192,0,0,1,0-31.345L75.666,28.677c.373-.373.737-.773,1.083-1.183.1-.118.182-.237.273-.355l.364-.482c.109-.136.209-.273.309-.409s.191-.3.282-.455l.3-.482c.082-.127.155-.246.227-.373s.155-.309.227-.464l.246-.5c.073-.136.136-.273.2-.409s.127-.309.182-.464l.2-.519c.055-.146.118-.282.164-.428s.082-.273.118-.419l.164-.573a2.365,2.365,0,0,1,.127-.464c.036-.164.055-.282.082-.428l.1-.519a3.832,3.832,0,0,1,.1-.528,2.038,2.038,0,0,0,0-.409l.055-.546a2.215,2.215,0,0,1,.045-.546,1.122,1.122,0,0,0,0-.391V15.374a2.515,2.515,0,0,0-.055-.637c-.055-.209,0-.237-.064-.355l-.091-.51a2.862,2.862,0,0,0-.109-.61c-.045-.2-.064-.237-.091-.355l-.136-.5c-.055-.2-.109-.409-.173-.61a2.255,2.255,0,0,0-.136-.355l-.173-.464c-.073-.2-.146-.4-.227-.6a2.6,2.6,0,0,0-.173-.355l-.237-.473c-.091-.191-.182-.382-.282-.564s-.146-.246-.218-.364l-.273-.455c-.1-.173-.209-.346-.318-.519a2.7,2.7,0,0,0-.273-.364l-.337-.446a5.447,5.447,0,0,0-.346-.455L75.3,4.893a16.451,16.451,0,0,0-23.438-.027L4.878,51.779a16.632,16.632,0,0,0,0,23.52l36.131,36.195h0v-2.311a12.033,12.033,0,0,1,.155-1.665l.064-.446c.1-.664.2-1.219.328-1.738v-.1c.136-.564.291-1.1.455-1.629l.146-.428c.218-.637.428-1.174.646-1.674l.045-.1c.227-.519.482-1.028.764-1.538l.218-.4c.337-.591.646-1.1.964-1.565s.692-.964,1.119-1.492l.3-.364c.464-.555.91-1,1.283-1.4Z" transform="translate(-0.007 0.027)"/>
    </g>
  </g>
</svg>
